<svg width="33" height="33" viewBox="0 0 33 33" fill="none" xmlns="http://www.w3.org/2000/svg">
<g clip-path="url(#clip0)">
<path d="M32.9677 9.70209C32.8904 7.94867 32.6069 6.74321 32.2007 5.69867C31.7816 4.58991 31.137 3.59724 30.2924 2.77203C29.4672 1.93397 28.468 1.28277 27.372 0.870287C26.3214 0.464103 25.1223 0.180555 23.3689 0.103246C21.6024 0.0193903 21.0416 2.38419e-07 16.5612 2.38419e-07C12.0808 2.38419e-07 11.52 0.0193903 9.76006 0.0966988C8.00664 0.174007 6.80118 0.457808 5.75689 0.86374C4.64788 1.28277 3.6552 1.92742 2.82999 2.77203C1.99194 3.59724 1.34099 4.59646 0.928255 5.69237C0.522071 6.74321 0.238522 7.94213 0.161214 9.69554C0.0773582 11.4621 0.0579681 12.0229 0.0579681 16.5032C0.0579681 20.9836 0.0773582 21.5444 0.154667 23.3044C0.231975 25.0578 0.515775 26.2632 0.92196 27.3078C1.34099 28.4165 1.99194 29.4092 2.82999 30.2344C3.6552 31.0725 4.65442 31.7237 5.75034 32.1362C6.80118 32.5423 8.00009 32.8259 9.75376 32.9032C11.5135 32.9808 12.0745 32.9999 16.5549 32.9999C21.0353 32.9999 21.5961 32.9808 23.356 32.9032C25.1094 32.8259 26.3149 32.5423 27.3592 32.1362C29.577 31.2787 31.3304 29.5253 32.1878 27.3078C32.5938 26.2569 32.8776 25.0578 32.9549 23.3044C33.0322 21.5444 33.0516 20.9836 33.0516 16.5032C33.0516 12.0229 33.045 11.4621 32.9677 9.70209ZM29.996 23.1754C29.925 24.7871 29.6543 25.6574 29.4286 26.2375C28.8741 27.6752 27.7331 28.8162 26.2955 29.3707C25.7153 29.5963 24.8387 29.867 23.2334 29.9378C21.4928 30.0153 20.9708 30.0345 16.5677 30.0345C12.1647 30.0345 11.6361 30.0153 9.90183 29.9378C8.29019 29.867 7.4199 29.5963 6.83971 29.3707C6.12429 29.1063 5.47309 28.6872 4.94452 28.1393C4.39656 27.6042 3.97753 26.9595 3.71312 26.2441C3.48749 25.6639 3.21679 24.7871 3.14603 23.182C3.06847 21.4414 3.04933 20.9191 3.04933 16.5161C3.04933 12.113 3.06847 11.5844 3.14603 9.85041C3.21679 8.23877 3.48749 7.36848 3.71312 6.78829C3.97753 6.07262 4.39656 5.42167 4.95107 4.89285C5.48593 4.34489 6.13059 3.92586 6.84626 3.6617C7.42645 3.43607 8.30328 3.16537 9.90838 3.09435C11.649 3.01705 12.1712 2.99766 16.574 2.99766C20.9836 2.99766 21.5057 3.01705 23.2399 3.09435C24.8516 3.16537 25.7219 3.43607 26.3021 3.6617C27.0175 3.92586 27.6687 4.34489 28.1972 4.89285C28.7452 5.42796 29.1642 6.07262 29.4286 6.78829C29.6543 7.36848 29.925 8.24506 29.996 9.85041C30.0733 11.591 30.0927 12.113 30.0927 16.5161C30.0927 20.9191 30.0733 21.4349 29.996 23.1754Z" fill="white"/>
<path d="M16.5612 8.02598C11.8811 8.02598 8.08395 11.8229 8.08395 16.5032C8.08395 21.1835 11.8811 24.9805 16.5612 24.9805C21.2415 24.9805 25.0384 21.1835 25.0384 16.5032C25.0384 11.8229 21.2415 8.02598 16.5612 8.02598ZM16.5612 22.0022C13.525 22.0022 11.0622 19.5397 11.0622 16.5032C11.0622 13.4668 13.525 11.0042 16.5612 11.0042C19.5976 11.0042 22.0602 13.4668 22.0602 16.5032C22.0602 19.5397 19.5976 22.0022 16.5612 22.0022Z" fill="white"/>
<path d="M27.3529 7.69081C27.3529 8.78371 26.4668 9.66986 25.3736 9.66986C24.2807 9.66986 23.3946 8.78371 23.3946 7.69081C23.3946 6.59766 24.2807 5.71176 25.3736 5.71176C26.4668 5.71176 27.3529 6.59766 27.3529 7.69081Z" fill="white"/>
</g>
<defs>
<clipPath id="clip0">
<rect width="33" height="33" fill="white"/>
</clipPath>
</defs>
</svg>
