<svg width="34" height="34" viewBox="0 0 34 34" fill="none" xmlns="http://www.w3.org/2000/svg">
<path d="M17 34C26.3741 34 34 26.3741 34 17C34 7.62592 26.3741 0 17 0C7.62592 0 0 7.62592 0 17C0 26.3741 7.62592 34 17 34ZM17 2.125C25.2025 2.125 31.875 8.7975 31.875 17C31.875 25.2025 25.2025 31.875 17 31.875C8.7975 31.875 2.125 25.2025 2.125 17C2.125 8.7975 8.7975 2.125 17 2.125Z" fill="white"/>
<path d="M11.186 20.0529L13.4073 19.0882L12.784 19.7129C12.5842 19.9127 12.4723 20.1832 12.4723 20.4637V24.6217C12.4723 25.5737 13.6227 26.0355 14.2857 25.3725L16.5155 23.1427L21.3747 25.5722C22.0037 25.8867 22.7644 25.5142 22.8947 24.8115L25.6672 9.56675C25.8131 8.7465 25.0056 8.0835 24.2335 8.38667L6.21917 15.4374C5.41167 15.7519 5.304 16.8569 6.035 17.323L10.1915 19.975C10.489 20.1648 10.8644 20.1946 11.186 20.0529ZM23.2362 11.0613L21.0587 23.0392L16.7804 20.9015C16.3667 20.6947 15.8737 20.7811 15.555 21.1012L14.5973 22.0589V20.9072L18.8572 16.6473C19.6832 15.8213 18.7538 14.4585 17.6828 14.9217L10.8587 17.8826L8.94058 16.6586L23.2362 11.0613Z" fill="white"/>
</svg>
